<svg xmlns="http://www.w3.org/2000/svg" width="398" height="300.001" viewBox="0 0 398 300.001"><defs><style>.a{fill:#fff;}</style></defs><path class="a" d="M2487-1659H2119a14.9,14.9,0,0,1-10.606-4.393A14.9,14.9,0,0,1,2104-1674v-218.765h15.62l9.382-47.613h-21.24L2104-1927.236V-1944a14.9,14.9,0,0,1,4.393-10.607A14.9,14.9,0,0,1,2119-1959h368a14.9,14.9,0,0,1,10.607,4.393A14.9,14.9,0,0,1,2502-1944v166.622h-11.068l-13.629,47.613H2502V-1674a14.9,14.9,0,0,1-4.393,10.607A14.9,14.9,0,0,1,2487-1659Zm-33.238-118.378h0l-13.629,47.613h25.488l9.381-47.613Zm-308.83-163h0l-13.63,47.613h25.488l9.382-47.613Z" transform="translate(-2104 1959)"/></svg>